<svg width="26" height="26" viewBox="0 0 26 26" fill="none" xmlns="http://www.w3.org/2000/svg">
<path fill-rule="evenodd" clip-rule="evenodd" d="M14.7077 0.432705C13.7787 0.736955 12.4374 1.45945 11.5501 2.1337C10.7499 2.74195 9.4569 4.4252 9.4619 4.8522C9.46365 4.9822 9.9179 5.3057 10.4714 5.57095C11.6572 6.1392 13.2159 7.75696 13.9342 9.16471C14.8954 11.049 15.0262 13.981 14.2397 16.019C13.9867 16.6745 14.0154 16.7097 15.0307 16.9845C18.5854 17.9465 22.7739 15.9517 24.6369 12.4097C25.2551 11.2342 25.3316 10.8272 25.3316 8.71371C25.3316 6.60746 25.2542 6.1912 24.6459 5.03545C23.6507 3.14445 22.6817 2.15195 20.9054 1.2052C19.5597 0.487955 19.0469 0.357455 17.3342 0.297705C16.2341 0.259205 15.0522 0.319955 14.7077 0.432705ZM5.75265 1.7922C5.0519 2.53845 5.0634 3.2397 5.78765 3.9202C6.5339 4.62095 7.23515 4.60945 7.91565 3.8852C8.59365 3.1632 8.60965 2.3642 7.95915 1.7137C7.2954 1.04995 6.4209 1.0812 5.75265 1.7922ZM20.0517 3.17495C21.7494 4.08245 22.9502 5.7772 23.3122 7.7762L23.4819 8.71371H22.3454C21.3349 8.71371 21.2087 8.65145 21.2052 8.1512C21.1939 6.64345 19.0294 4.47895 17.5217 4.4677C17.0214 4.4642 16.9592 4.33795 16.9592 3.32745V2.19095L17.8967 2.35745C18.4124 2.4492 19.3822 2.81695 20.0517 3.17495ZM0.2119 4.83545C0.0316504 5.0527 -0.0295995 5.4747 0.0649005 5.8507C0.202401 6.3987 0.345651 6.4827 1.03015 6.41645C1.65065 6.35645 1.8529 6.2072 1.9159 5.76245C2.0719 4.66195 0.88965 4.01895 0.2119 4.83545ZM4.66065 6.81045C3.46215 7.1362 3.12615 7.33321 1.86515 8.45121C-0.711849 10.7357 -0.60085 15.3227 2.0889 17.6842C3.40415 18.8392 4.56665 19.2745 6.33415 19.2745C8.79465 19.2745 10.6012 18.2122 11.9017 16C12.4812 15.014 12.5842 14.5557 12.5842 12.9637C12.5842 11.3717 12.4812 10.9135 11.9017 9.92745C10.3342 7.2612 7.49715 6.03995 4.66065 6.81045ZM22.1182 19.0457C21.9012 19.5655 21.4776 19.999 20.9899 20.201C20.5344 20.3897 20.2092 20.7075 20.2092 20.9637C20.2092 21.22 20.5344 21.5377 20.9899 21.7265C21.4776 21.9285 21.9012 22.362 22.1182 22.8817C22.3094 23.3395 22.6317 23.7137 22.8342 23.7137C23.0366 23.7137 23.3589 23.3395 23.5501 22.8817C23.7671 22.362 24.1907 21.9285 24.6784 21.7265C25.1339 21.5377 25.4592 21.22 25.4592 20.9637C25.4592 20.7075 25.1339 20.3897 24.6784 20.201C24.1907 19.999 23.7671 19.5655 23.5501 19.0457C23.3589 18.588 23.0366 18.2137 22.8342 18.2137C22.6317 18.2137 22.3094 18.588 22.1182 19.0457ZM12.6499 19.855C11.2929 20.5912 10.7802 22.7852 11.6292 24.2225C13.1014 26.7147 17.0016 25.865 17.3904 22.9672C17.7379 20.3765 15.0007 18.5795 12.6499 19.855ZM6.77865 21.7762C6.22815 22.4882 6.2154 22.72 6.70015 23.2047C6.98015 23.4847 7.31365 23.7137 7.4414 23.7137C7.79065 23.7137 8.45915 22.9747 8.45915 22.5887C8.45915 22.1567 7.77415 21.4637 7.3469 21.4637C7.1674 21.4637 6.91165 21.6045 6.77865 21.7762ZM1.5884 23.0617C1.24215 23.408 0.95915 23.9212 0.95915 24.2025C0.95915 24.9052 1.8284 25.7137 2.58415 25.7137C3.3224 25.7137 4.20915 24.9102 4.20915 24.2415C4.20915 23.6307 3.4874 22.8017 2.7759 22.595C2.3709 22.4772 2.04465 22.6057 1.5884 23.0617Z" fill="url(#paint0_linear_25_706)"/>
<defs>
<linearGradient id="paint0_linear_25_706" x1="5.79037" y1="12.9999" x2="23.3731" y2="12.9999" gradientUnits="userSpaceOnUse">
<stop stop-color="#737373"/>
<stop offset="1" stop-color="#CF881D"/>
</linearGradient>
</defs>
</svg>
